<svg width="17" height="15" viewBox="0 0 17 15" fill="none" xmlns="http://www.w3.org/2000/svg">
<path d="M14.96 1.95836C14.1208 1.11699 13.0084 0.603457 11.8237 0.510539C10.639 0.417621 9.46012 0.75144 8.50001 1.4517C7.49274 0.702492 6.23901 0.362767 4.99128 0.500934C3.74356 0.6391 2.59453 1.24489 1.77558 2.19633C0.956624 3.14776 0.528582 4.37415 0.577649 5.62854C0.626715 6.88293 1.14925 8.07214 2.04001 8.9567L6.95626 13.8809C7.36794 14.286 7.9224 14.5131 8.50001 14.5131C9.07762 14.5131 9.63208 14.286 10.0438 13.8809L14.96 8.9567C15.8843 8.0267 16.4032 6.76875 16.4032 5.45753C16.4032 4.14631 15.8843 2.88836 14.96 1.95836ZM13.8438 7.8642L8.92751 12.7804C8.87157 12.8369 8.80499 12.8818 8.73161 12.9124C8.65823 12.943 8.57952 12.9587 8.50001 12.9587C8.42051 12.9587 8.3418 12.943 8.26842 12.9124C8.19504 12.8818 8.12846 12.8369 8.07251 12.7804L3.15626 7.84045C2.53541 7.2058 2.18775 6.35327 2.18775 5.46545C2.18775 4.57762 2.53541 3.72509 3.15626 3.09045C3.78893 2.46581 4.6422 2.11556 5.53126 2.11556C6.42033 2.11556 7.2736 2.46581 7.90626 3.09045C7.97986 3.16465 8.06742 3.22354 8.16389 3.26373C8.26036 3.30393 8.36384 3.32462 8.46835 3.32462C8.57286 3.32462 8.67633 3.30393 8.7728 3.26373C8.86928 3.22354 8.95683 3.16465 9.03043 3.09045C9.66309 2.46581 10.5164 2.11556 11.4054 2.11556C12.2945 2.11556 13.1478 2.46581 13.7804 3.09045C14.4098 3.71677 14.7689 4.56468 14.7807 5.45253C14.7926 6.34038 14.4562 7.19756 13.8438 7.84045V7.8642Z" fill="white"/>
</svg>
