<svg width="10" height="6" viewBox="0 0 10 6" fill="none" xmlns="http://www.w3.org/2000/svg">
<path d="M9.16667 0.641665C9.01054 0.486456 8.79933 0.399338 8.57917 0.399338C8.35902 0.399338 8.14781 0.486456 7.99167 0.641665L5.00001 3.59166L2.05001 0.641665C1.89387 0.486456 1.68266 0.399338 1.46251 0.399338C1.24235 0.399338 1.03114 0.486456 0.875008 0.641665C0.796901 0.719134 0.734906 0.811301 0.692598 0.912851C0.650291 1.0144 0.62851 1.12332 0.62851 1.23333C0.62851 1.34334 0.650291 1.45226 0.692598 1.55381C0.734906 1.65536 0.796901 1.74753 0.875008 1.825L4.40834 5.35833C4.48581 5.43644 4.57798 5.49843 4.67953 5.54074C4.78108 5.58305 4.89 5.60483 5.00001 5.60483C5.11002 5.60483 5.21894 5.58305 5.32049 5.54074C5.42204 5.49843 5.51421 5.43644 5.59167 5.35833L9.16667 1.825C9.24478 1.74753 9.30678 1.65536 9.34908 1.55381C9.39139 1.45226 9.41317 1.34334 9.41317 1.23333C9.41317 1.12332 9.39139 1.0144 9.34908 0.912851C9.30678 0.811301 9.24478 0.719134 9.16667 0.641665Z" fill="#176975"/>
</svg>
