<svg width="5" height="7" viewBox="0 0 5 7" fill="none" xmlns="http://www.w3.org/2000/svg">
<path d="M0.731306 0.375002C0.614899 0.492103 0.54956 0.65051 0.54956 0.815627C0.54956 0.980743 0.614899 1.13915 0.731306 1.25625L2.94381 3.5L0.731306 5.7125C0.614899 5.8296 0.549561 5.98801 0.549561 6.15313C0.549561 6.31824 0.614899 6.47665 0.731306 6.59375C0.789408 6.65233 0.858533 6.69883 0.934695 6.73056C1.01086 6.76229 1.09255 6.77863 1.17506 6.77863C1.25756 6.77863 1.33925 6.76229 1.41542 6.73056C1.49158 6.69883 1.5607 6.65233 1.61881 6.59375L4.26881 3.94375C4.32739 3.88565 4.37388 3.81652 4.40561 3.74036C4.43734 3.6642 4.45368 3.58251 4.45368 3.5C4.45368 3.41749 4.43734 3.3358 4.40561 3.25964C4.37388 3.18348 4.32739 3.11435 4.26881 3.05625L1.61881 0.375002C1.5607 0.316421 1.49158 0.269925 1.41542 0.238194C1.33925 0.206464 1.25756 0.190127 1.17506 0.190127C1.09255 0.190127 1.01086 0.206464 0.934695 0.238194C0.858533 0.269925 0.789407 0.316421 0.731306 0.375002Z" fill="#76737D"/>
</svg>
