<svg width="20" height="20" viewBox="0 0 20 20" fill="none" xmlns="http://www.w3.org/2000/svg">
<path d="M19.9696 16.2232L17.8278 3.02387C17.6372 1.85121 16.6181 1 15.4046 1H4.59541C3.38192 1 2.36281 1.85121 2.17222 3.02387L0.0303527 16.2235C-0.0821119 16.9182 0.121082 17.6236 0.587953 18.1583C1.05482 18.6934 1.73497 19 2.45386 19H17.5462C18.265 19 18.9452 18.6934 19.4121 18.1583C19.8789 17.6236 20.0821 16.9182 19.9696 16.2232ZM17.9402 16.9287C17.8823 16.9952 17.7541 17.1065 17.5462 17.1065H2.45385C2.24593 17.1065 2.11771 16.9952 2.05975 16.9287C2.00179 16.8624 1.90948 16.721 1.94193 16.5203L4.0838 3.32096C4.12412 3.07317 4.33928 2.8935 4.5954 2.8935H15.4046C15.6607 2.8935 15.8759 3.07317 15.9162 3.32096L18.0581 16.52C18.0905 16.721 17.9982 16.8624 17.9402 16.9287Z" fill="white"/>
<path d="M13.1143 4C12.6251 4 12.2286 4.43183 12.2286 4.96479V7.64307C12.2286 8.98159 11.2288 10.0704 10 10.0704C8.77123 10.0704 7.77137 8.98158 7.77137 7.64307V4.96479C7.77137 4.43183 7.37495 4 6.88569 4C6.39643 4 6 4.43183 6 4.96479V7.64307C6 10.0456 7.79443 12 10 12C12.2056 12 14 10.0456 14 7.64307V4.96479C14 4.43183 13.6036 4 13.1143 4Z" fill="white"/>
</svg>
